<?xml version="1.0" standalone="no"?>
<!DOCTYPE svg PUBLIC "-//W3C//DTD SVG 20010904//EN"
 "http://www.w3.org/TR/2001/REC-SVG-20010904/DTD/svg10.dtd">
<svg version="1.0" xmlns="http://www.w3.org/2000/svg"
 width="30.000000pt" height="30.000000pt" viewBox="0 0 30.000000 30.000000"
 preserveAspectRatio="xMidYMid meet">

<g transform="translate(0.000000,30.000000) scale(0.100000,-0.100000)"
fill="#000000" stroke="none">
<path d="M111 241 c-30 -24 -36 -36 -41 -85 l-6 -56 86 0 86 0 -6 56 c-5 49
-11 61 -41 85 -19 16 -36 28 -39 28 -3 0 -20 -12 -39 -28z"/>
<path d="M40 70 c0 -5 17 -10 39 -10 30 0 40 -4 44 -20 7 -27 47 -27 54 0 4
16 14 20 44 20 22 0 39 5 39 10 0 6 -43 10 -110 10 -67 0 -110 -4 -110 -10z"/>
</g>
</svg>
